#!OML:ASF Y:\EmotionMaleHayes\Project 1\Capture day 1\Session 1\Male1.ASF
:FULLY-SPECIFIED
:DEGREES
1657
root 9.86417 16.8607 3.816 899.08 34.6465 905.572
lowerback 8.26468 4.71117 6.18835
upperback 6.23021 7.13405 1.42911
thorax 2.43733 3.96367 -2.33595
lowerneck -3.23597 18.9856 23.9833
upperneck 16.9788 31.5379 -21.8323
head 13.8247 15.0792 -5.91543
rclavicle -8.19987e-015 2.54444e-014
rhumerus -50.929 30.5882 -110.791
rradius 121.619
rwrist -6.00278
rhand -40.2166 -19.0835
rfingers 7.12502
rthumb -13.1766 -48.6471
lclavicle -8.19987e-015 2.54444e-014
lhumerus -45.8944 -53.7778 118.236
lradius 107.385
lwrist 38.9301
lhand -15.176 -34.2282
lfingers 7.12502
lthumb 10.995 -4.53614
rfemur 6.22631 -16.2025 26.3802
rtibia 13.8835
rfoot -25.4583 -20.1572
rtoes 1.78945
lfemur -16.5144 -18.6804 -7.11783
ltibia 22.9236
lfoot 2.79691 -21.189
ltoes -9.29797
1658
root 9.86471 16.8579 3.83682 899.307 34.5218 906.141
lowerback 8.45753 4.75582 6.56138
upperback 6.21295 7.24202 1.57342
thorax 2.35262 4.0289 -2.41451
lowerneck -3.33946 19.0663 23.2715
upperneck 17.1329 31.4737 -21.1251
head 13.5855 15.0362 -5.60256
rclavicle -1.85864e-014 1.27222e-014
rhumerus -50.6752 30.2244 -110.472
rradius 121.598
rwrist -5.32922
rhand -38.7522 -20.0326
rfingers 7.12502
rthumb -11.7647 -49.6822
lclavicle -1.85864e-014 1.27222e-014
lhumerus -45.8925 -53.8583 118.168
lradius 107.332
lwrist 38.8954
lhand -15.3609 -34.5436
lfingers 7.12502
lthumb 10.8166 -4.84215
rfemur 6.10736 -15.9225 27.1218
rtibia 13.9668
rfoot -25.5865 -20.5002
rtoes 2.32716
lfemur -16.6439 -18.5677 -6.49012
ltibia 23.0324
lfoot 2.93318 -21.1542
ltoes -8.97797
1659
root 9.86302 16.854 3.84769 899.26 34.3224 906.16
lowerback 8.49168 4.78888 6.58351
upperback 6.23683 7.29417 1.56469
thorax 2.36791 4.05891 -2.43896
lowerneck -3.3664 18.9695 23.4756
upperneck 17.232 31.3797 -21.2059
head 13.6646 15.0005 -5.68071
rclavicle -6.89286e-014 2.42517e-014
rhumerus -50.5865 29.9171 -110.403
rradius 121.623
rwrist -5.11839
rhand -37.8293 -19.8383
rfingers 7.12502
rthumb -10.8746 -49.5367
lclavicle -6.89286e-014 2.42517e-014
lhumerus -45.952 -53.8901 118.141
lradius 107.392
lwrist 38.8019
lhand -15.6615 -35.0746
lfingers 7.12502
lthumb 10.5267 -5.35816
rfemur 6.07568 -16.0001 27.1774
rtibia 14.0458
rfoot -25.6131 -20.6279
rtoes 2.15725
lfemur -16.7011 -18.6602 -6.5119
ltibia 23.0747
lfoot 2.95554 -21.1019
ltoes -9.54456
1660
root 9.86256 16.8501 3.85525 899.075 34.0714 905.967
lowerback 8.48961 4.82198 6.39787
upperback 6.28311 7.32925 1.54243
thorax 2.39902 4.07453 -2.35972
lowerneck -3.476 19.0033 23.2742
upperneck 17.4625 31.3809 -20.8566
head 13.6588 14.9944 -5.52705
rclavicle -5.34731e-014 -1.07344e-014
rhumerus -50.5628 29.6138 -110.414
rradius 121.736
rwrist -5.33966
rhand -36.9102 -19.1631
rfingers 7.12502
rthumb -9.98799 -48.9061
lclavicle -5.34731e-014 -1.07344e-014
lhumerus -45.9904 -53.7577 118.17
lradius 107.39
lwrist 38.424
lhand -15.4491 -35.0109
lfingers 7.12502
lthumb 10.7316 -5.30502
rfemur 6.13175 -16.281 26.9297
rtibia 14.1108
rfoot -25.6047 -20.5997
rtoes 2.10452
lfemur -16.6888 -18.7921 -6.79646
ltibia 23.0995
lfoot 2.83605 -21.1514
ltoes -10.5238
1661
root 9.86202 16.8483 3.86305 899.011 33.8889 905.997
lowerback 8.51122 4.89251 6.35949
upperback 6.3212 7.42793 1.59016
thorax 2.42424 4.126 -2.29339
lowerneck -3.41174 18.8443 23.6777
upperneck 17.4657 31.2492 -21.163
head 13.7629 14.9539 -5.72694
rclavicle -3.79182e-014 -2.78299e-014
rhumerus -50.5196 29.4163 -110.438
rradius 121.845
rwrist -5.82344
rhand -36.8336 -18.777
rfingers 7.12502
rthumb -9.9141 -48.5235
lclavicle -3.79182e-014 -2.78299e-014
lhumerus -46.0129 -53.6814 118.23
lradius 107.36
lwrist 38.2406
lhand -14.8758 -34.6059
lfingers 7.12502
lthumb 11.2845 -4.92948
rfemur 6.18892 -16.3943 26.9435
rtibia 14.1044
rfoot -25.5466 -20.6579
rtoes 2.43971
lfemur -16.6812 -18.8679 -6.83112
ltibia 23.1452
lfoot 2.69755 -21.1623
ltoes -10.9533
1662
root 9.86061 16.8467 3.86863 899.004 33.7643 906.017
lowerback 8.49381 4.96793 6.40419
upperback 6.32565 7.53097 1.56909
thorax 2.45686 4.18082 -2.34
lowerneck -3.36544 18.7272 23.9231
upperneck 17.4491 31.1366 -21.348
head 13.8079 14.9173 -5.8605
rclavicle 4.18442e-014 -5.76476e-015
rhumerus -50.527 29.3023 -110.617
rradius 121.825
rwrist -6.15531
rhand -37.3157 -18.2493
rfingers 7.12502
rthumb -10.3792 -47.9731
lclavicle 4.18442e-014 -5.76476e-015
lhumerus -46.1539 -53.7872 118.236
lradius 107.426
lwrist 38.3636
lhand -14.6121 -34.7523
lfingers 7.12502
lthumb 11.5389 -5.08997
rfemur 6.17637 -16.3311 27.0269
rtibia 14.0707
rfoot -25.5448 -20.8206
rtoes 2.7935
lfemur -16.7516 -18.9647 -6.84955
ltibia 23.2253
lfoot 2.58606 -21.0814
ltoes -11.3629
1663
root 9.86075 16.8452 3.87404 898.935 33.6324 905.871
lowerback 8.53435 4.9974 6.59905
upperback 6.27265 7.58033 1.2783
thorax 2.45204 4.21366 -2.75106
lowerneck -3.34558 18.7173 24.2548
upperneck 17.5069 31.0812 -21.2735
head 13.8554 14.9071 -5.88951
rclavicle -1.87355e-014 1.80894e-014
rhumerus -50.4821 29.1131 -111.034
rradius 121.661
rwrist -6.04698
rhand -37.2716 -17.6332
rfingers 7.12502
rthumb -10.3366 -47.3591
lclavicle -1.87355e-014 1.80894e-014
lhumerus -46.4471 -54.0258 117.989
lradius 107.604
lwrist 38.4151
lhand -14.5107 -34.6383
lfingers 7.12502
lthumb 11.6367 -4.98144
rfemur 6.15388 -16.2575 26.9764
rtibia 14.0503
rfoot -25.6461 -20.9262
rtoes 3.37758
lfemur -16.8381 -19.0962 -7.0295
ltibia 23.2971
lfoot 2.54901 -21.0032
ltoes -11.7312
1664
root 9.8609 16.8448 3.87934 898.876 33.5053 905.776
lowerback 8.44786 5.05407 6.32634
upperback 6.32628 7.63485 1.41331
thorax 2.50374 4.23332 -2.45536
lowerneck -3.39196 18.6304 24.2527
upperneck 17.6116 31.0598 -21.4112
head 13.9361 14.8961 -5.94375
rclavicle 1.22253e-014 2.90226e-014
rhumerus -50.4796 29.2897 -110.741
rradius 121.621
rwrist -6.08303
rhand -36.7059 -17.3968
rfingers 7.12502
rthumb -9.79087 -47.1492
lclavicle 1.22253e-014 2.90226e-014
lhumerus -46.4893 -53.9347 118.218
lradius 107.694
lwrist 38.2767
lhand -14.5926 -34.2236
lfingers 7.12502
lthumb 11.5577 -4.56228
rfemur 6.16827 -16.2621 26.9311
rtibia 14.0097
rfoot -25.7058 -20.9612
rtoes 3.76438
lfemur -16.8764 -19.2767 -7.16824
ltibia 23.3094
lfoot 2.49244 -20.8805
ltoes -11.9787
1665
root 9.86168 16.8445 3.885 898.925 33.4153 905.868
lowerback 8.36423 5.07936 6.30099
upperback 6.38329 7.66536 1.50231
thorax 2.59604 4.25218 -2.33792
lowerneck -3.47599 18.6868 23.7655
upperneck 17.6467 31.0635 -21.1021
head 13.8027 14.8799 -5.77085
rclavicle -6.60959e-015 3.598e-014
rhumerus -50.3461 29.3346 -110.625
rradius 121.611
rwrist -6.22715
rhand -36.1654 -17.2637
rfingers 7.12502
rthumb -9.26944 -47.0399
lclavicle -6.60959e-015 3.598e-014
lhumerus -46.4795 -53.9202 118.207
lradius 107.799
lwrist 38.1357
lhand -14.5735 -34.0902
lfingers 7.12502
lthumb 11.5761 -4.4299
rfemur 6.1279 -16.3384 27.0273
rtibia 14.0265
rfoot -25.7477 -20.9286
rtoes 3.92122
lfemur -16.9269 -19.4076 -7.08191
ltibia 23.3251
lfoot 2.45744 -20.7547
ltoes -11.8611
